    <svg width="32" height="32" viewBox="0 0 32 32" fill="none" xmlns="http://www.w3.org/2000/svg">
        <mask id="mask0_18_60" style="mask-type:alpha" maskUnits="userSpaceOnUse" x="0" y="0" width="32" height="32">
            <rect width="32" height="32" fill="white" />
        </mask>
        <g mask="url(#mask0_18_60)">
            <path
                d="M18.6666 26.6667V24H22.6666C23.0444 24 23.3611 23.8722 23.6166 23.6167C23.8722 23.3611 24 23.0444 24 22.6667V20C24 19.1556 24.2444 18.3889 24.7333 17.7C25.2222 17.0111 25.8666 16.5222 26.6666 16.2333V15.7667C25.8666 15.4778 25.2222 14.9889 24.7333 14.3C24.2444 13.6111 24 12.8444 24 12V9.33334C24 8.95556 23.8722 8.63889 23.6166 8.38334C23.3611 8.12778 23.0444 8 22.6666 8H18.6666V5.33334H22.6666C23.7777 5.33334 24.7222 5.72222 25.5 6.5C26.2777 7.27778 26.6666 8.22222 26.6666 9.33334V12C26.6666 12.3778 26.7944 12.6944 27.05 12.95C27.3055 13.2056 27.6222 13.3333 28 13.3333H29.3333V18.6667H28C27.6222 18.6667 27.3055 18.7944 27.05 19.05C26.7944 19.3056 26.6666 19.6222 26.6666 20V22.6667C26.6666 23.7778 26.2777 24.7222 25.5 25.5C24.7222 26.2778 23.7777 26.6667 22.6666 26.6667H18.6666ZM9.33329 26.6667C8.22218 26.6667 7.27774 26.2778 6.49996 25.5C5.72218 24.7222 5.33329 23.7778 5.33329 22.6667V20C5.33329 19.6222 5.20551 19.3056 4.94996 19.05C4.6944 18.7944 4.37774 18.6667 3.99996 18.6667H2.66663V13.3333H3.99996C4.37774 13.3333 4.6944 13.2056 4.94996 12.95C5.20551 12.6944 5.33329 12.3778 5.33329 12V9.33334C5.33329 8.22222 5.72218 7.27778 6.49996 6.5C7.27774 5.72222 8.22218 5.33334 9.33329 5.33334H13.3333V8H9.33329C8.95551 8 8.63885 8.12778 8.38329 8.38334C8.12774 8.63889 7.99996 8.95556 7.99996 9.33334V12C7.99996 12.8444 7.75551 13.6111 7.26663 14.3C6.77774 14.9889 6.13329 15.4778 5.33329 15.7667V16.2333C6.13329 16.5222 6.77774 17.0111 7.26663 17.7C7.75551 18.3889 7.99996 19.1556 7.99996 20V22.6667C7.99996 23.0444 8.12774 23.3611 8.38329 23.6167C8.63885 23.8722 8.95551 24 9.33329 24H13.3333V26.6667H9.33329Z"
                fill="white" />
        </g>
    </svg>