<svg width="140" height="140" viewBox="0 0 140 140" fill="none" xmlns="http://www.w3.org/2000/svg">
<mask id="mask0_45_43" style="mask-type:alpha" maskUnits="userSpaceOnUse" x="0" y="0" width="140" height="140">
<rect width="139.456" height="139.456" fill="#D9D9D9"/>
</mask>
<g mask="url(#mask0_45_43)">
<path d="M69.7277 87.1597C72.9236 87.1597 75.6594 86.0218 77.9353 83.7459C80.2111 81.4701 81.349 78.7343 81.349 75.5384C81.349 72.3425 80.2111 69.6067 77.9353 67.3309C75.6594 65.055 72.9236 63.9171 69.7277 63.9171C66.5319 63.9171 63.796 65.055 61.5202 67.3309C59.2443 69.6067 58.1064 72.3425 58.1064 75.5384C58.1064 78.7343 59.2443 81.4701 61.5202 83.7459C63.796 86.0218 66.5319 87.1597 69.7277 87.1597ZM34.8638 127.834C31.668 127.834 28.9321 126.696 26.6563 124.42C24.3805 122.145 23.2426 119.409 23.2426 116.213V23.2426C23.2426 20.0467 24.3805 17.3109 26.6563 15.035C28.9321 12.7592 31.668 11.6213 34.8638 11.6213H81.349L116.213 46.4852V116.213C116.213 119.409 115.075 122.145 112.799 124.42C110.523 126.696 107.787 127.834 104.592 127.834H34.8638ZM34.8638 116.213H102.122L81.349 95.5851C79.7027 96.6504 77.911 97.4494 75.9742 97.982C74.0373 98.5147 71.9551 98.781 69.7277 98.781C63.336 98.781 57.8643 96.5051 53.3126 91.9535C48.761 87.4018 46.4851 81.9301 46.4851 75.5384C46.4851 69.1467 48.761 63.675 53.3126 59.1233C57.8643 54.5717 63.336 52.2958 69.7277 52.2958C76.1194 52.2958 81.5911 54.5717 86.1428 59.1233C90.6945 63.675 92.9703 69.1467 92.9703 75.5384C92.9703 77.7658 92.704 79.848 92.1713 81.7848C91.6387 83.7217 90.8397 85.5133 89.7744 87.1597L104.592 102.267V51.4242L76.41 23.2426H34.8638V116.213Z" fill="#D8D8D8"/>
</g>
</svg>
