<svg width="140" height="140" viewBox="0 0 140 140" fill="none" xmlns="http://www.w3.org/2000/svg">
<mask id="mask0_57_31" style="mask-type:alpha" maskUnits="userSpaceOnUse" x="0" y="0" width="140" height="140">
<rect width="139.456" height="139.456" fill="#D9D9D9"/>
</mask>
<g mask="url(#mask0_57_31)">
<path d="M89.7297 116.213L95.5404 122.024H38.4396C35.7652 122.024 33.5323 121.128 31.7406 119.336C29.949 117.545 29.0532 115.312 29.0532 112.637V26.8183C29.0532 24.144 29.949 21.911 31.7406 20.1194C33.5323 18.3277 35.7652 17.4319 38.4396 17.4319H80.1088C81.5222 17.4319 82.8571 17.7277 84.1135 18.3191C85.3699 18.9106 86.43 19.7584 87.2938 20.8624L108.201 45.8594C108.896 46.7253 109.437 47.6701 109.823 48.6935C110.209 49.7169 110.402 50.7947 110.402 51.927V112.637C110.402 113.531 110.158 114.423 109.67 115.313C109.182 116.204 108.547 116.995 107.765 117.688L79.7847 89.7745C78.1383 90.9142 76.5123 91.7318 74.9065 92.2273C73.3006 92.7227 71.5744 92.9703 69.7277 92.9703C64.934 92.9703 60.8302 91.2635 57.4164 87.8497C54.0027 84.436 52.2958 80.3322 52.2958 75.5384C52.2958 70.7446 54.0027 66.6408 57.4164 63.2271C60.8302 59.8133 64.934 58.1065 69.7277 58.1065C74.5215 58.1065 78.6253 59.8133 82.0391 63.2271C85.4528 66.6408 87.1597 70.7446 87.1597 75.5384C87.1597 77.5423 86.8934 79.3451 86.3607 80.9468C85.8281 82.5484 85.0291 84.0979 83.9638 85.5953L104.592 106.514V50.5526L81.6396 23.2426H38.4396C37.5457 23.2426 36.7263 23.615 35.9813 24.36C35.2363 25.105 34.8639 25.9244 34.8639 26.8183V112.637C34.8639 113.531 35.2363 114.351 35.9813 115.096C36.7263 115.84 37.5457 116.213 38.4396 116.213H89.7297ZM69.7277 87.1597C72.9236 87.1597 75.6594 86.0218 77.9353 83.7459C80.2111 81.4701 81.349 78.7343 81.349 75.5384C81.349 72.3425 80.2111 69.6067 77.9353 67.3309C75.6594 65.055 72.9236 63.9171 69.7277 63.9171C66.5319 63.9171 63.796 65.055 61.5202 67.3309C59.2444 69.6067 58.1065 72.3425 58.1065 75.5384C58.1065 78.7343 59.2444 81.4701 61.5202 83.7459C63.796 86.0218 66.5319 87.1597 69.7277 87.1597Z" fill="#B7B7B7"/>
</g>
</svg>
