<svg width="32" height="32" viewBox="0 0 32 32" fill="none" xmlns="http://www.w3.org/2000/svg">
<mask id="mask0_18_54" style="mask-type:alpha" maskUnits="userSpaceOnUse" x="0" y="0" width="32" height="32">
<rect width="32" height="32" fill="#D9D9D9"/>
</mask>
<g mask="url(#mask0_18_54)">
<path d="M12 24H20C20.3778 24 20.6945 23.8722 20.95 23.6167C21.2056 23.3611 21.3334 23.0444 21.3334 22.6667C21.3334 22.2889 21.2056 21.9722 20.95 21.7167C20.6945 21.4611 20.3778 21.3333 20 21.3333H12C11.6223 21.3333 11.3056 21.4611 11.05 21.7167C10.7945 21.9722 10.6667 22.2889 10.6667 22.6667C10.6667 23.0444 10.7945 23.3611 11.05 23.6167C11.3056 23.8722 11.6223 24 12 24ZM12 18.6667H20C20.3778 18.6667 20.6945 18.5389 20.95 18.2833C21.2056 18.0278 21.3334 17.7111 21.3334 17.3333C21.3334 16.9556 21.2056 16.6389 20.95 16.3833C20.6945 16.1278 20.3778 16 20 16H12C11.6223 16 11.3056 16.1278 11.05 16.3833C10.7945 16.6389 10.6667 16.9556 10.6667 17.3333C10.6667 17.7111 10.7945 18.0278 11.05 18.2833C11.3056 18.5389 11.6223 18.6667 12 18.6667ZM8.00004 29.3333C7.26671 29.3333 6.63893 29.0722 6.11671 28.55C5.59449 28.0278 5.33337 27.4 5.33337 26.6667V5.33334C5.33337 4.6 5.59449 3.97223 6.11671 3.45001C6.63893 2.92778 7.26671 2.66667 8.00004 2.66667H17.5667C17.9223 2.66667 18.2612 2.73334 18.5834 2.86667C18.9056 3.00001 19.1889 3.18889 19.4334 3.43334L25.9 9.9C26.1445 10.1444 26.3334 10.4278 26.4667 10.75C26.6 11.0722 26.6667 11.4111 26.6667 11.7667V26.6667C26.6667 27.4 26.4056 28.0278 25.8834 28.55C25.3612 29.0722 24.7334 29.3333 24 29.3333H8.00004ZM17.3334 10.6667V5.33334H8.00004V26.6667H24V12H18.6667C18.2889 12 17.9723 11.8722 17.7167 11.6167C17.4612 11.3611 17.3334 11.0444 17.3334 10.6667Z" fill="#4E4E4E"/>
</g>
</svg>
